<?xml version="1.0" encoding="utf-8"?>
<!-- Generator: Adobe Illustrator 27.1.1, SVG Export Plug-In . SVG Version: 6.00 Build 0)  -->
<svg version="1.1" id="레이어_1" xmlns="http://www.w3.org/2000/svg" xmlns:xlink="http://www.w3.org/1999/xlink" x="0px"
	 y="0px" viewBox="0 0 448 512" style="enable-background:new 0 0 448 512;" xml:space="preserve">
<style type="text/css">
	.st0{fill:none;}
	.st1{fill:#FFC21C;}
	.st2{fill:#FFFFFF;}
	.st3{display:none;}
	.st4{display:inline;fill:#D0FF0B;}
	.st5{display:inline;fill:#F9FF03;}
	.st6{display:inline;}
	.st7{fill:#FFCB00;}
	.st8{fill:none;stroke:#000000;stroke-width:0.5409;stroke-miterlimit:10;}
	.st9{fill:none;stroke:#000000;stroke-width:1.5289;stroke-miterlimit:10;}
	.st10{fill:none;stroke:#000000;stroke-width:1.6097;stroke-miterlimit:10;}
	.st11{display:inline;fill:#FFC21C;}
	.st12{display:inline;fill:#FFA01C;}
	.st13{clip-path:url(#SVGID_00000128444280986677550990000003559050730341295288_);}
	
		.st14{clip-path:url(#SVGID_00000169545975698065607720000006017702333578883471_);fill:url(#SVGID_00000006681915511966061180000009210922366011299511_);}
</style>
<pattern  y="512" width="448" height="512" patternUnits="userSpaceOnUse" id="SVGID_0000001098950235068590856" viewBox="0 -512 448 512" style="overflow:visible;">
	<g>
		<rect y="-512" class="st0" width="448" height="512"/>
	</g>
</pattern>
<g id="레이어_1_00000152943351836876101770000016498821834474178211_">
	<path class="st1" d="M448,96c0-35.3-28.7-64-64-64c-6.6,0-13,1-19,2.9c-22.5,7-48.1,14.9-71,9c-75.2-19.1-156.4,11-213.7,68.3
		S-7.2,250.8,11.9,326c5.8,22.9-2,48.4-9,71C1,403,0,409.4,0,416c0,35.3,28.7,64,64,64c6.6,0,13-1,19.1-2.9c22.5-7,48.1-14.9,71-9
		c75.2,19.1,156.4-11,213.7-68.3s87.5-138.5,68.3-213.7c-5.8-22.9,2-48.4,9-71C447,109.1,448,102.7,448,96L448,96z M212.5,127.4
		c-54.6,16-101.1,62.5-117.1,117.1c-2.5,8.5-11.4,13.3-19.9,10.9S62.2,244,64.6,235.5c19.1-65.1,73.7-119.8,138.9-138.9
		c8.5-2.5,17.4,2.4,19.9,10.9S221,124.9,212.5,127.4z"/>
	<path class="st2" d="M75.4,255.4c8.5,2.4,17.4-2.4,19.9-10.9c16-54.6,62.5-101.1,117.1-117.1c8.5-2.5,13.4-11.4,10.9-19.9
		s-11.4-13.4-19.9-10.9c-65.2,19.1-119.8,73.8-138.9,138.9C62.1,244,66.9,253,75.4,255.4z"/>
</g>
<g id="레이어_2_00000146497750252857035450000010935067472725675699_" class="st3">
	<path class="st4" d="M1675.3,41.7c0-35.3-28.7-64-64-64c-6.6,0-13,1-19,2.9c-22.5,7-48.1,14.9-71,9c-75.2-19.1-156.4,11-213.7,68.3
		s-87.5,138.6-68.4,213.8c5.8,22.9-2,48.4-9,71c-1.9,6-2.9,12.4-2.9,19c0,35.3,28.7,64,64,64c6.6,0,13-1,19.1-2.9
		c22.5-7,48.1-14.9,71-9c75.2,19.1,156.4-11,213.7-68.3c57.3-57.3,87.5-138.5,68.3-213.7c-5.8-22.9,2-48.4,9-71
		C1674.3,54.8,1675.3,48.4,1675.3,41.7L1675.3,41.7z M1439.8,73.1c-54.6,16-101.1,62.5-117.1,117.1c-2.5,8.5-11.4,13.3-19.9,10.9
		s-13.3-11.4-10.9-19.9c19.1-65.1,73.7-119.8,138.9-138.9c8.5-2.5,17.4,2.4,19.9,10.9S1448.3,70.6,1439.8,73.1z"/>
	<path class="st5" d="M1175.8,41.7c0-35.3-28.7-64-64-64c-6.6,0-13,1-19,2.9c-22.5,7-48.1,14.9-71,9c-75.2-19.1-156.4,11-213.7,68.3
		s-87.5,138.6-68.4,213.8c5.8,22.9-2,48.4-9,71c-1.9,6-2.9,12.4-2.9,19c0,35.3,28.7,64,64,64c6.6,0,13-1,19.1-2.9
		c22.5-7,48.1-14.9,71-9c75.2,19.1,156.4-11,213.7-68.3s87.5-138.5,68.3-213.7c-5.8-22.9,2-48.4,9-71
		C1174.8,54.8,1175.8,48.4,1175.8,41.7L1175.8,41.7z M940.3,73.1c-54.6,16-101.1,62.5-117.1,117.1c-2.5,8.5-11.4,13.3-19.9,10.9
		s-13.3-11.4-10.9-19.9c19.1-65.1,73.7-119.8,138.9-138.9c8.5-2.5,17.4,2.4,19.9,10.9S948.8,70.6,940.3,73.1z"/>
	<g id="XMLID_00000071536442780249500810000016147674553157565340_" class="st6">
		<g>
			<ellipse class="st7" cx="370.4" cy="847.1" rx="124.7" ry="115.9"/>
		</g>
		<g>
			<ellipse class="st8" cx="370.4" cy="847.1" rx="124.7" ry="115.9"/>
		</g>
	</g>
	<g class="st6">
		<path class="st2" d="M465.1,897.9c-1.4,1.2-3.2,1.6-4.7,0.3c-1.2-1.1-1.6-3.6-0.2-4.8c13.7-11.9,15.1-30,14.3-47
			c-0.2-4.3,6.5-4.7,6.7-0.4C482,864.7,480,884.9,465.1,897.9z"/>
		<path class="st2" d="M481.8,834.9c-0.1,0.4-0.3,0.8-0.6,1.2c-0.3,0.4-0.6,0.6-1,0.8s-0.8,0.4-1.3,0.4c-0.3,0-0.6,0-0.9,0
			c-0.6-0.1-1.1-0.3-1.5-0.7c-0.2-0.2-0.4-0.4-0.6-0.6c-0.3-0.5-0.5-1-0.6-1.7l-0.1-1c-0.1-0.5,0-0.9,0.2-1.3
			c0.1-0.4,0.3-0.8,0.6-1.2c0.3-0.4,0.6-0.6,1-0.8s0.8-0.4,1.3-0.4c0.3,0,0.6,0,0.9,0c0.6,0.1,1.1,0.3,1.5,0.7
			c0.2,0.2,0.4,0.4,0.6,0.6c0.3,0.5,0.5,1,0.6,1.7l0.1,1C482,834.1,482,834.5,481.8,834.9z"/>
	</g>
	<path class="st6" d="M553.9,647c1.9,1.1,2.1,1.5,0.3,3.3l-41.4,40.8c-2.2,2.3-2.8,2.5-5.4,2l-6.3-1.1c-2.6-0.4-3-0.7-3.2-3.5
		l-4.4-48.8c-0.2-2.1,0.3-2.4,2.8-2.8l6.1-0.6c2.5-0.2,3.1,0.1,3.2,1.8l3.5,42.7l35.7-35.9c1.4-1.5,2.2-1.5,4.1-0.5L553.9,647z"/>
	<path class="st6" d="M621.3,723.1c-2-0.1-2.4-0.5-2.2-2.5c3.1-21.9-6.6-37.1-24.5-37.1c-18.3,0-27.1,13.7-26.3,34.5
		c0.1,1.9-0.1,2.6-2.2,2.6l-6.7,0.1c-2,0-2.3-0.3-2.6-2.5c-2.3-24.3,9.9-47,36.1-47c25.5,0,41.9,18.5,37.7,50.2
		c-0.3,2.2-0.8,2.4-2.6,2.3L621.3,723.1z"/>
	<g class="st6">
	</g>
	<g class="st6">
	</g>
	<g class="st6">
	</g>
	<g class="st6">
	</g>
	<g class="st6">
		<g>
			<line class="st9" x1="632.6" y1="608.2" x2="617.6" y2="620.5"/>
			<line class="st9" x1="622.4" y1="597.6" x2="612.9" y2="613.5"/>
		</g>
		<g>
			<path class="st2" d="M609.7,653.1c0.7-3.1,1.2-6.2,1.5-9.3c1-1.6,1.9-3.7,2.4-5.9c1.3-5.9-0.1-11.1-3.2-12.3
				c-2.2-10.7-7.7-18.4-15.4-20c-0.6-0.1-1.1-0.2-1.7-0.2c0.5-0.3,0.9-0.6,1.4-0.8c4.1-2.3,8.3-3.1,12.4-2.3
				c14.5,2.9,21.5,26.4,15.7,52.5c-1.8,8.2-4.8,15.7-8.3,22c-3.5-2.2-7.4-3.7-11.8-4.7C605.7,666.6,608.2,660.2,609.7,653.1z"/>
			<path d="M588.4,647.8c-1.1-1.1-1.7-1-2.7,0l-17.5,17.5c-0.3-6.6,0.3-13.8,2-21.2c4-17.9,13.1-32.4,23.1-38.7
				c0.6,0,1.1,0.1,1.7,0.2c7.7,1.6,13.2,9.3,15.4,20c3.1,1.1,4.5,6.4,3.2,12.3c-0.5,2.3-1.4,4.3-2.4,5.9c-0.3,3-0.8,6.1-1.5,9.3
				c-1.6,7.1-4.1,13.5-7.1,19c-3.1-0.6-6.3-1-9.7-1c-9.3,0-16.8,2.9-22.5,7.6c-0.3-1-0.6-2-0.8-3l0,0l22-22c1-1,1-1.6,0-2.7
				L588.4,647.8z"/>
			<path class="st2" d="M588.4,647.8l3.2,3.2c1.1,1.1,1,1.7,0,2.7l-22,22l0,0c-0.7-3.2-1.2-6.7-1.3-10.4l17.5-17.5
				C586.7,646.8,587.3,646.8,588.4,647.8z"/>
			<path d="M570.4,678.8c5.7-4.8,13.3-7.6,22.5-7.6c3.4,0,6.7,0.3,9.7,1c4.3,0.9,8.3,2.5,11.8,4.7c12.4,7.7,19,23.1,16.2,44.5
				c-0.3,2.2-0.8,2.4-2.6,2.3l-6.7-0.6c-2-0.1-2.4-0.5-2.2-2.5c2.3-15.9-2.2-28.2-11.7-33.8c-3.6-2.1-7.9-3.3-12.8-3.3
				c-0.1,0-0.3,0-0.4,0c-7.7,0.1-13.6,2.6-17.9,7.1c-5.8,6-8.5,15.6-8,27.5c0.1,1.9-0.1,2.6-2.2,2.6l-6.7,0.1c-2,0-2.3-0.3-2.6-2.5
				C555.3,702.5,559.9,687.5,570.4,678.8z"/>
			<path class="st2" d="M605.7,647.6c-0.9-0.2-1.7-0.7-2.3-1.5c-1.8-2.2-2.4-6.4-1.4-10.9c1-4.4,3.3-8,5.8-9.4c1-0.5,2-0.7,2.9-0.5
				c0.2,0,0.3,0.1,0.5,0.2c3.1,1.1,4.5,6.4,3.2,12.3c-0.5,2.3-1.4,4.3-2.4,5.9C610.2,646.4,607.8,648,605.7,647.6z"/>
			<path class="st10" d="M568.2,665.3c-0.3-6.6,0.3-13.8,2-21.2c4-17.9,13.1-32.4,23.1-38.7c0.5-0.3,0.9-0.6,1.4-0.8
				c4.1-2.3,8.3-3.1,12.4-2.3c14.5,2.9,21.5,26.4,15.7,52.5c-1.8,8.2-4.8,15.7-8.3,22c-3.5-2.2-7.4-3.7-11.8-4.7
				c-3.1-0.6-6.3-1-9.7-1c-9.3,0-16.8,2.9-22.5,7.6c-0.3-1-0.6-2-0.8-3l0,0C568.9,672.5,568.4,669,568.2,665.3"/>
		</g>
	</g>
	<g class="st6">
		<g>
			<line class="st9" x1="462.7" y1="562.6" x2="465.6" y2="581.7"/>
			<line class="st9" x1="477.4" y1="561.5" x2="473.8" y2="579.7"/>
		</g>
		<path class="st2" d="M465.4,643c2.9-5.3,5.2-11.5,6.7-18.2c0.7-3.1,1.2-6.2,1.5-9.3c1-1.6,1.9-3.6,2.4-5.9
			c1.3-5.9-0.1-11.1-3.2-12.3c-2.2-10.7-7.7-18.4-15.4-20c-0.6-0.1-1.1-0.2-1.7-0.2c0.5-0.3,0.9-0.6,1.4-0.8
			c4.1-2.3,8.3-3.1,12.4-2.3c14.5,2.9,21.5,26.4,15.7,52.5c-2.4,10.7-6.6,20.2-11.8,27.5C471.4,649.5,468.8,645.8,465.4,643z"/>
		<path d="M472.7,597.4c-0.2-0.1-0.3-0.1-0.5-0.2c-1-0.2-2,0-2.9,0.5c-2.5,1.4-4.8,4.9-5.8,9.4s-0.4,8.7,1.4,10.9
			c0.6,0.8,1.4,1.3,2.3,1.5c2.2,0.4,4.5-1.2,6.3-4c-0.3,3-0.8,6.1-1.5,9.3c-1.5,6.7-3.8,12.9-6.7,18.2c-5.4-4.6-12.7-7-21.1-7
			c-5.2,0-9.7,1.1-13.6,3c-0.5-7.1,0-15,1.9-23.2c4-17.9,13.1-32.4,23.1-38.7c0.6,0,1.1,0.1,1.7,0.2
			C465,578.9,470.5,586.6,472.7,597.4z"/>
		<path class="st2" d="M463.5,607.1c1-4.4,3.3-8,5.8-9.4c1-0.5,2-0.7,2.9-0.5c0.2,0,0.3,0.1,0.5,0.2c3.1,1.1,4.5,6.4,3.2,12.3
			c-0.5,2.3-1.4,4.3-2.4,5.9c-1.8,2.8-4.2,4.4-6.3,4c-0.9-0.2-1.7-0.7-2.3-1.5C463.1,615.9,462.5,611.7,463.5,607.1z"/>
		<path class="st2" d="M450.8,619.6l3.2,3.2c1.1,1.1,1,1.7,0,2.7l-22,22l0,0c-0.7-3.2-1.2-6.7-1.3-10.4l17.5-17.5
			C449.1,618.6,449.7,618.5,450.8,619.6z"/>
		<path d="M430.7,639c3.9-1.9,8.4-3,13.6-3c8.4,0,15.7,2.4,21.1,7c3.4,2.8,6.1,6.5,7.9,10.9c2.7,6.4,3.7,14.5,2.4,24
			c-0.2,1.9-0.7,2-2.2,2l-5.5-0.5c-1.6-0.1-2-0.4-1.8-2.1c0.8-5.5,0.6-10.5-0.5-14.8c-1.1-4.4-3.1-8.1-5.9-10.8
			c-3.5-3.4-8.3-5.3-14.1-5.3c-5.3,0-9.7,1.4-13,4c-6.3,4.8-9.3,13.5-8.9,24.8c0.1,1.6-0.1,2.2-1.8,2.2l-5.5,0.1
			c-1.6,0-2-0.2-2.2-2.1C412.7,659.8,418.3,645.1,430.7,639z"/>
		<path class="st10" d="M432.5,615.8c4-17.9,13.1-32.4,23.1-38.7c0.5-0.3,0.9-0.6,1.4-0.8c4.1-2.3,8.3-3.1,12.4-2.3
			c14.5,2.9,21.5,26.4,15.7,52.5c-2.4,10.7-6.6,20.2-11.8,27.5c-1.9-4.4-4.5-8.1-7.9-10.9c-5.4-4.6-12.7-7-21.1-7
			c-0.3,0-0.6,0-0.9,0c-4.8,0.1-9.1,1.2-12.7,2.9l0,0C430.2,631.9,430.7,624,432.5,615.8z"/>
	</g>
	<g class="st6">
		<circle class="st2" cx="601.9" cy="699.1" r="2.9"/>
		<circle class="st2" cx="586" cy="693.2" r="2.1"/>
		<circle class="st2" cx="588.5" cy="702" r="2.1"/>
		<circle class="st2" cx="456.7" cy="656.4" r="1.7"/>
		<circle class="st2" cx="453.4" cy="666.5" r="1.3"/>
		<circle class="st2" cx="444.2" cy="655.6" r="2.9"/>
	</g>
	<path class="st6" d="M644,891.8c2.8,2.1,3.1,2.7,0,5.2l-70.7,58.3c-3.8,3.4-4.7,3.5-8.8,2.4l-9.8-2.6c-4-1.1-4.6-1.6-4.5-5.9v-77.3
		c0-3.3,0.8-3.7,4.8-3.9l9.7-0.1c3.9,0,4.9,0.6,4.7,3.3l-0.5,67.5l61.2-51.4c2.4-2.1,3.7-2.1,6.6-0.3L644,891.8z"/>
	<circle class="st6" cx="708.9" cy="889.1" r="18.9"/>
	<circle class="st6" cx="526.1" cy="819.3" r="14.7"/>
	<path class="st11" d="M1397,1052.9c27.2-43.9,111,0.4,147.7-8.8c43.4-10.9,176.5-58.3,166.1-209.2c-7.2-105.2,31.3-94.2,46.9-120.2
		c0-0.1,0.1-0.3,0.1-0.4c1.9-6,2.9-12.4,2.9-19.1c0-35.3-28.7-64-64-64c-6.6,0-13,1-19,2.9c-22.5,7-48.1,14.9-71,9
		c-75.2-19.1-156.4,11-213.7,68.3c-57.3,57.3-87.5,138.6-68.4,213.8c5.8,22.9-2,48.4-9,71c-1.9,6-2.9,12.4-2.9,19
		c0,20.5,9.7,38.7,24.6,50.4C1355.3,1073.9,1380.8,1079.2,1397,1052.9z M1377.5,834.6c19.1-65.1,73.7-119.8,138.9-138.9
		c8.5-2.5,17.4,2.4,19.9,10.9s-2.4,17.4-10.9,19.9c-54.6,16-101.1,62.5-117.1,117.1c-2.5,8.5-11.4,13.3-19.9,10.9
		C1379.9,852.1,1375.1,843.1,1377.5,834.6z"/>
	<path class="st12" d="M1396,1076.2c22.5-7,48.1-14.9,71-9c75.2,19.1,156.4-11,213.7-68.3c57.3-57.3,87.5-138.5,68.3-213.7
		c-5.8-22.8,1.9-48.1,8.9-70.6c-15.6,26-54.2,15-46.9,120.2c10.4,150.9-122.7,198.4-166.1,209.2c-36.7,9.2-120.6-35.1-147.7,8.8
		c-16.3,26.3-41.7,21.1-59.5,12.7c10.9,8.5,24.5,13.6,39.4,13.6C1383.5,1079.1,1389.9,1078.1,1396,1076.2z"/>
	<path class="st11" d="M2295.1,695.1c0-35.3-28.7-64-64-64c-6.6,0-13,1-19,2.9c-22.5,7-48.1,14.9-71,9
		c-75.2-19.1-156.4,11-213.7,68.3s-87.5,138.6-68.4,213.8c5.8,22.9-2,48.4-9,71c-1.9,6-2.9,12.4-2.9,19c0,35.3,28.7,64,64,64
		c6.6,0,13-1,19.1-2.9c22.5-7,48.1-14.9,71-9c75.2,19.1,156.4-11,213.7-68.3s87.5-138.5,68.3-213.7c-5.8-22.9,2-48.4,9-71
		C2294.1,708.2,2295.1,701.8,2295.1,695.1L2295.1,695.1z M2059.6,726.5c-54.6,16-101.1,62.5-117.1,117.1
		c-2.5,8.5-11.4,13.3-19.9,10.9c-8.5-2.4-13.3-11.4-10.9-19.9c19.1-65.1,73.7-119.8,138.9-138.9c8.5-2.5,17.4,2.4,19.9,10.9
		S2068.1,724,2059.6,726.5z"/>
	<g class="st6">
		<g>
			<defs>
				<path id="SVGID_1_" d="M2295.1,695.1c0-35.3-28.7-64-64-64c-6.6,0-13,1-19,2.9c-22.5,7-48.1,14.9-71,9
					c-75.2-19.1-156.4,11-213.7,68.3s-87.5,138.6-68.4,213.8c5.8,22.9-2,48.4-9,71c-1.9,6-2.9,12.4-2.9,19c0,35.3,28.7,64,64,64
					c6.6,0,13-1,19.1-2.9c22.5-7,48.1-14.9,71-9c75.2,19.1,156.4-11,213.7-68.3s87.5-138.5,68.3-213.7c-5.8-22.9,2-48.4,9-71
					C2294.1,708.2,2295.1,701.8,2295.1,695.1L2295.1,695.1z M2059.6,726.5c-54.6,16-101.1,62.5-117.1,117.1
					c-2.5,8.5-11.4,13.3-19.9,10.9c-8.5-2.4-13.3-11.4-10.9-19.9c19.1-65.1,73.7-119.8,138.9-138.9c8.5-2.5,17.4,2.4,19.9,10.9
					S2068.1,724,2059.6,726.5z"/>
			</defs>
			<clipPath id="SVGID_00000160872031856958073200000015397427786330660785_">
				<use xlink:href="#SVGID_1_"  style="overflow:visible;"/>
			</clipPath>
			<g style="clip-path:url(#SVGID_00000160872031856958073200000015397427786330660785_);">
				<g>
					<defs>
						<path id="SVGID_00000043458178691722327330000005773716552849794453_" d="M1859.2,1053.2c0,0,50.3,36.5,82.5-3.8
							c23-28.8,112,3.4,148.7-5.8c43.4-10.9,156.4-48.9,154.7-208.8c-0.9-82.5,18.7-85,32.5-101.2c11.5-13.5,10.3-36.3-1-93.1
							l116.1,145.9l-179.5,276.4l-202.5,43.2c0,0-83.2,12.3-91.2,11.5C1911.7,1116.7,1859.2,1053.2,1859.2,1053.2z"/>
					</defs>
					<clipPath id="SVGID_00000005988538246576630650000014668961719125071759_">
						<use xlink:href="#SVGID_00000043458178691722327330000005773716552849794453_"  style="overflow:visible;"/>
					</clipPath>
					
						<pattern  id="SVGID_00000078761968624883679420000001808035471570931081_" xlink:href="#SVGID_0000001098950235068590856" patternTransform="matrix(1.0897 0 0 -1.0897 3410.2334 -18436.4648)">
					</pattern>
					
						<rect x="1821" y="628.3" style="clip-path:url(#SVGID_00000005988538246576630650000014668961719125071759_);fill:url(#SVGID_00000078761968624883679420000001808035471570931081_);" width="589.8" height="589.8"/>
				</g>
			</g>
		</g>
	</g>
</g>
</svg>
