<?xml version="1.0" encoding="utf-8"?>
<!-- Generator: Adobe Illustrator 27.2.0, SVG Export Plug-In . SVG Version: 6.00 Build 0)  -->
<svg version="1.1" id="레이어_1" xmlns="http://www.w3.org/2000/svg" xmlns:xlink="http://www.w3.org/1999/xlink" x="0px"
	 y="0px" viewBox="0 0 448 512" style="enable-background:new 0 0 448 512;" xml:space="preserve">
<style type="text/css">
	.st0{display:none;}
	.st1{display:inline;fill:#D0FF0B;}
	.st2{display:inline;fill:#F9FF03;}
	.st3{display:inline;}
	.st4{fill:#FFCB00;}
	.st5{fill:none;stroke:#000000;stroke-width:0.5409;stroke-miterlimit:10;}
	.st6{fill:#FFFFFF;}
	.st7{fill:none;stroke:#000000;stroke-width:1.5289;stroke-miterlimit:10;}
	.st8{fill:none;stroke:#000000;stroke-width:1.6097;stroke-miterlimit:10;}
	.st9{display:inline;fill:#FFC21C;}
	.st10{display:inline;fill:#FFA01C;}
	.st11{clip-path:url(#SVGID_00000083770243375948898680000001315971364111490965_);}
	.st12{clip-path:url(#SVGID_00000160160512286142607570000006660283460168155550_);fill:url(#);}
	.st13{fill:none;}
	.st14{fill:#FFC21C;}
	.st15{fill:none;stroke:#FFC21C;stroke-miterlimit:10;}
	.st16{display:inline;fill:#7F7F7F;}
	.st17{display:inline;fill:#101010;}
	.st18{display:inline;fill:none;stroke:#606060;stroke-width:0.8138;stroke-miterlimit:10;}
	.st19{display:inline;fill:none;stroke:#606060;stroke-width:0.9043;stroke-miterlimit:10;}
	.st20{display:inline;fill:#936E11;}
	.st21{display:inline;fill:#606060;}
	.st22{fill:#101010;}
	.st23{display:inline;fill:none;}
	.st24{display:inline;fill:none;stroke:#101010;stroke-miterlimit:10;}
	.st25{display:inline;fill:none;stroke:#FFFFFF;stroke-width:0.4975;stroke-miterlimit:10.0002;}
	.st26{fill:none;stroke:#606060;stroke-width:0.9043;stroke-miterlimit:10;}
	.st27{fill:#D112FF;}
	.st28{fill:#606060;}
	.st29{display:inline;fill:#FFFFFF;}
</style>
<g id="레이어_2_00000146497750252857035450000010935067472725675699_" class="st0">
</g>
<g>
	<path d="M447,136.9c-0.1-1.3-0.3-2.6-0.7-3.8c-6-17.5-45.1-21.4-100.9-13.4c-2,0.3-4,0.6-6.1,0.9c-1.2-0.9-2.5-1.8-3.8-2.7
		c-27.7-19.5-61.8-31-98.4-31c-78,0-143.7,51.9-164.8,122.9c-0.5,1.6-0.9,3.2-1.3,4.8c-0.6,0.3-1.1,0.6-1.7,1
		C22.8,242.7-3.8,268.8,2,285.8c1,2.8,2.8,5.3,5.5,7.5c10.6,8.5,34,11.4,65.7,9.2c2.7-0.2,5.5-0.4,8.4-0.7
		c43.4-4.1,100.5-17.1,161.2-38c58.8-20.2,110.4-44.2,147-67c2.4-1.5,4.8-3,7.1-4.5C429.2,171.2,448,151.4,447,136.9z M45,273.5
		c-1-2.8-0.8-5.8,0.4-9.2c2.5-7.1,9.6-15.4,20.4-24.2c0.1-0.1,0.2-0.2,0.3-0.3c-0.6,6.1-1.2,12.5-1.2,18.9c0,9.4,0.6,18.4,2.2,27.2
		C55.1,284,47.2,279.9,45,273.5z M388.3,172.9c-0.5,0.6-1,1.1-1.5,1.7c-6.5-11.6-14.4-22.3-23.2-32.2c-0.8-0.9-1.6-1.8-2.4-2.6
		c1.7,0.1,3.3,0.2,4.9,0.3c15.3,1.3,25.3,5.4,28.4,12.3c0.1,0.3,0.2,0.6,0.3,0.8C396.7,158.8,394.3,165.4,388.3,172.9z"/>
	<path d="M198.4,305.3c1.7-0.3,3.3-1,5-1.3C201.7,304.3,200.1,304.6,198.4,305.3z"/>
	<path d="M404.2,219.1c-38.6,23.8-92.8,49.2-154.6,70.4c-15.9,5.3-31,10.2-46.2,14.5c-1.7,0.3-3.3,1-5,1.3
		c-25.4,8.3-43.6,32-43.6,60.1c0,30.7,21.8,56.2,50.5,62.1c1.3,0.3,2.6,0.3,4,0.7c8.9,1.3,18.2,2.3,27.7,2.3
		c94.8,0,171.8-77,171.8-171.8C408.8,245.2,407.2,231.6,404.2,219.1z"/>
	<path class="st6" d="M284.4,124.6l3.6,6.6c4.2,7.6,10.4,13.8,18,18l6.6,3.6l-6.6,3.6c-7.6,4.2-13.8,10.4-18,18l-3.6,6.6l-3.6-6.6
		c-4.2-7.6-10.4-13.8-18-18l-6.6-3.6l6.6-3.6c7.6-4.2,13.8-10.4,18-18L284.4,124.6z"/>
</g>
<g id="레이어_2_00000116209831144519557600000005443327370685075352_" class="st0">
</g>
<g id="레이어_3" class="st0">
</g>
</svg>
